<?xml version="1.0" standalone="no"?>
<!DOCTYPE svg PUBLIC "-//W3C//DTD SVG 20010904//EN"
 "http://www.w3.org/TR/2001/REC-SVG-20010904/DTD/svg10.dtd">
<svg version="1.0" xmlns="http://www.w3.org/2000/svg"
 width="3240.000000pt" height="3240.000000pt" viewBox="0 0 3240.000000 3240.000000"
 preserveAspectRatio="xMidYMid meet">

<g transform="translate(0.000000,3240.000000) scale(0.100000,-0.100000)"
fill="#000000" stroke="none">
<path d="M0 16200 l0 -16200 16200 0 16200 0 0 16200 0 16200 -16200 0 -16200
0 0 -16200z m16458 8266 c383 -200 873 -428 1293 -602 949 -393 1966 -696
2877 -859 934 -166 1826 -223 2525 -159 l77 7 0 -4326 c0 -2924 -3 -4358 -10
-4428 -71 -698 -328 -1464 -724 -2154 -735 -1279 -1915 -2334 -3492 -3123
-784 -392 -1656 -716 -2632 -977 l-172 -46 -173 46 c-1342 359 -2465 824
-3453 1430 -906 556 -1663 1235 -2242 2010 -628 839 -1040 1829 -1147 2750
-13 114 -15 672 -15 4476 l0 4346 58 -8 c244 -33 852 -35 1292 -4 1028 73
2142 309 3248 687 702 239 1512 588 2197 947 127 66 231 120 233 121 1 0 118
-60 260 -134z"/>
<path d="M15945 23294 c-667 -322 -1435 -630 -2130 -852 -861 -276 -1713 -468
-2580 -581 -207 -27 -754 -75 -960 -84 l-50 -2 -3 -3765 c-2 -2729 0 -3797 8
-3880 49 -496 251 -1097 546 -1625 854 -1526 2528 -2722 4814 -3440 295 -92
583 -175 609 -175 10 0 149 38 308 85 1237 367 2271 839 3128 1428 930 640
1622 1395 2069 2259 242 468 408 984 461 1433 13 114 15 592 15 3901 0 3430
-1 3772 -16 3778 -9 3 -43 6 -77 6 -80 0 -399 25 -652 51 -1595 162 -3281 654
-4932 1440 -160 76 -298 139 -305 139 -7 0 -121 -52 -253 -116z m366 -164
c416 -209 1156 -522 1664 -703 1325 -473 2588 -750 3818 -838 l177 -13 0
-3681 c0 -4045 4 -3764 -60 -4068 -131 -619 -427 -1243 -864 -1822 -332 -441
-810 -908 -1300 -1270 -708 -523 -1576 -970 -2581 -1328 -228 -81 -375 -128
-733 -236 l-233 -70 -202 59 c-759 219 -1417 472 -2047 786 -1464 730 -2511
1694 -3089 2844 -199 398 -321 754 -399 1164 l-26 141 -3 3743 -3 3742 47 0
c65 0 576 46 727 65 1527 195 3032 633 4542 1323 132 60 285 133 340 160 54
28 105 51 112 51 7 1 58 -22 113 -49z"/>
<path d="M18847 20000 c-110 -10 -308 -55 -412 -95 -302 -113 -512 -314 -675
-644 -214 -434 -251 -1157 -84 -1623 55 -153 194 -399 318 -564 168 -223 400
-451 721 -710 376 -303 644 -553 786 -734 258 -326 340 -544 340 -900 0 -249
-35 -429 -112 -585 -123 -247 -313 -363 -630 -382 -177 -10 -367 31 -495 108
-117 71 -235 233 -288 395 -47 146 -58 237 -63 572 l-5 322 -354 0 -354 0 0
-208 c0 -535 52 -836 196 -1137 218 -457 590 -693 1159 -735 397 -30 767 39
1027 191 429 250 679 802 678 1494 -1 348 -55 597 -190 864 -192 384 -457 685
-955 1085 -518 416 -723 619 -915 905 -155 233 -220 452 -220 746 1 417 122
711 350 850 130 79 328 114 533 95 371 -35 567 -238 649 -670 6 -30 13 -158
17 -285 l6 -230 359 -3 359 -2 -6 237 c-3 143 -12 280 -22 343 -64 413 -199
705 -434 940 -247 247 -546 355 -1006 365 -99 2 -224 0 -278 -5z"/>
<path d="M12600 16540 l0 -3400 380 0 380 0 0 3400 0 3400 -380 0 -380 0 0
-3400z"/>
<path d="M13870 19595 l0 -345 625 0 625 0 0 -3055 0 -3055 380 0 380 0 0
3055 0 3055 625 0 625 0 0 345 0 345 -1630 0 -1630 0 0 -345z"/>
</g>
</svg>
